<svg width="32" height="32" viewBox="-5 -3 24 24" fill="none" xmlns="http://www.w3.org/2000/svg">
<rect x="-5" y="-3" width="24" height="24" fill="white" rx="4" />
<path d="M10.1896 5.55575C11.0144 5.21704 11.8301 4.39645 12.3959 3.71113C12.5246 3.55523 12.8247 3.6735 12.8016 3.87433C12.6894 4.84802 12.4353 6.1505 11.2293 7.01141C10.4863 7.54185 9.48608 7.8738 8.97166 7.99379C8.86998 8.01751 8.79998 8.11405 8.81192 8.21777C8.8945 8.93495 8.96834 10.542 8.73393 12.6261C8.43309 15.3009 7.05092 17.1738 6.08738 18.0636C5.94985 18.1906 5.74775 18.0472 5.79739 17.8667C5.98501 17.1845 6.19015 16.1912 6.23852 15.3294C6.29108 14.3931 6.2951 13.8599 6.28045 13.3652C6.2748 13.1741 6.0124 13.1073 5.9032 13.2642C5.56156 13.7549 5.02297 14.4015 4.15901 15.1215C3.40445 15.7503 2.12187 16.1506 1.27524 16.3059C1.10964 16.3363 1.00954 16.153 1.12059 16.0265C1.94796 15.0837 3.08371 14.031 3.80879 12.1721C4.17648 11.2294 4.36294 9.79478 4.36929 8.89381C4.3701 8.7779 4.26501 8.69191 4.15088 8.71217C3.58719 8.81219 3.00125 8.95377 2.07951 9.50681C1.4083 9.90954 0.918483 10.3588 0.538481 10.7645C0.400374 10.9119 0.119404 10.7757 0.160337 10.5779C0.329922 9.75827 0.658409 8.69676 1.87156 7.63526C2.82919 6.79733 4.15902 6.38755 5.82262 6.1796C7.48623 5.97165 8.96309 6.05938 10.1896 5.55575Z" fill="#2C2C37"/>
<circle cx="5.82254" cy="4.09991" r="1.66361" fill="#2C2C37"/>
<path d="M8.92262 0.149149C9.43741 -0.194045 10.024 0.115828 10.3608 0.466351C10.4699 0.579861 10.7047 0.581118 10.8165 0.470274C11.1634 0.126322 11.7685 -0.171739 12.2498 0.149148C12.8737 0.56505 12.4578 1.6048 12.0419 2.22865C11.743 2.67697 11.0862 3.27071 10.7044 3.58783C10.6357 3.64492 10.5368 3.64493 10.468 3.58783C10.0863 3.27071 9.42945 2.67697 9.13057 2.22865C8.71467 1.6048 8.29877 0.565049 8.92262 0.149149Z" fill="#2C2C37"/>
</svg>
