<svg width="72" height="80" viewBox="0 0 72 80" fill="none" xmlns="http://www.w3.org/2000/svg">
<g clip-path="url(#clip0_3_984)">
<path d="M1.34668 7.16016C13.9808 1.41982 27.2719 -0.565637 41.042 0.134766C51.232 0.653064 61.0151 2.90423 70.3994 6.92676C71.5229 7.4082 71.9052 8.0044 71.8818 9.21289C71.8049 13.1284 71.8535 17.047 71.8535 20.9639C71.9253 26.1222 72.297 31.2937 71.4785 36.4258C68.6474 54.1741 59.1204 67.1704 43.4863 75.8242C41.3433 77.0105 39.1374 78.0604 36.8428 78.9277C36.1721 79.181 35.5786 79.2078 34.9199 78.9277C15.6911 70.753 3.66138 56.8312 0.519531 35.8242C-0.314769 30.2444 0.102823 24.6272 0.116211 19.0244C0.124344 15.6417 0.238342 12.2592 0.241211 8.87695C0.242204 7.99442 0.534852 7.52878 1.34668 7.16016ZM63.5547 8.0791C51.9962 3.94321 40.0666 2.8266 27.9004 3.83594C20.0403 4.48812 12.4561 6.32126 5.16113 9.3584C3.94743 9.86377 3.50414 10.5202 3.53809 11.832C3.62606 15.2139 3.56738 18.5996 3.56738 21.9834H3.43848C3.43848 24.5213 3.42991 27.0597 3.44043 29.5977C3.46099 34.4861 4.1899 39.2743 5.70703 43.917C10.574 58.8121 20.5938 68.9206 34.8057 75.1191C35.6309 75.4792 36.341 75.3632 37.1084 75.0371C40.6016 73.5515 43.9267 71.7601 47.0283 69.5693C59.8183 60.5369 67.1325 48.296 68.4561 32.6367C69.0719 25.3475 68.3163 18.0385 68.4746 10.7393C68.4865 10.1915 68.2293 9.95461 67.7627 9.77246C66.3543 9.22266 64.977 8.58825 63.5547 8.0791ZM25.6709 6.76562C36.6159 5.49092 47.4379 6.14582 58.0908 9.06055C60.3655 9.68304 62.5704 10.5141 64.7725 11.3574C65.5689 11.6624 65.8361 12.1092 65.8252 12.9404C65.7855 16.0105 65.8096 19.0818 65.8096 22.1523L65.8086 22.1533C66.1815 28.7124 66.0615 35.2328 64.1523 41.6006C59.7946 56.133 50.3391 66.0853 36.6855 72.292C36.1204 72.5487 35.632 72.5481 35.042 72.3076C18.0151 65.3723 6.13589 47.8715 6.1123 29.5957C6.10513 24.033 6.21414 18.4694 6.2041 12.9062C6.20224 11.9816 6.65416 11.6925 7.35938 11.3994C13.2375 8.95858 19.3691 7.49956 25.6709 6.76562ZM45.084 20.8633C42.4997 16.1787 36.963 14.213 32.1973 16.4551C28.288 18.2947 26.328 21.5583 26.127 25.8486C26.044 27.6144 26.1119 29.3876 26.1113 31.1572V31.4834C25.7483 31.5307 25.4196 31.5371 25.1123 31.6201C23.9957 31.9209 23.2793 32.9026 23.2773 34.1406C23.2663 39.4066 23.2633 44.6724 23.2588 49.9385C23.2576 51.3831 24.3653 52.5035 25.8145 52.5068C30.6054 52.5178 35.3972 52.5257 40.1875 52.5283C42.3886 52.5296 44.5899 52.5202 46.791 52.5078C48.014 52.5014 49.0825 51.6042 49.2637 50.4111C49.3194 50.0418 49.2781 49.6575 49.2773 49.2803C49.2656 44.1762 49.2533 39.0718 49.2402 33.9678C49.2375 32.8939 48.5842 31.972 47.5557 31.6523C47.1927 31.5396 46.7985 31.5251 46.3545 31.4551V31.1621C46.3545 29.4029 46.3575 27.644 46.3535 25.8848C46.3496 24.1055 45.9447 22.424 45.084 20.8633ZM34.1299 38.4727C35.014 37.2846 36.6737 37.0534 37.834 37.9561C39.2705 39.0749 39.1099 41.2478 37.5127 42.0938C37.2004 42.259 37.2219 42.4703 37.2666 42.7354C37.5051 44.1588 37.7415 45.5827 37.9775 47.0068C38.0378 47.3737 38.0265 47.3838 37.6416 47.3838C37.1775 47.3844 36.7132 47.3838 36.249 47.3838V47.3857C35.7746 47.3857 35.2996 47.3741 34.8252 47.3896C34.5659 47.398 34.505 47.2907 34.542 47.0586C34.7481 45.7609 34.9485 44.4614 35.1514 43.1631C35.1597 43.1101 35.1645 43.0559 35.1807 43.0049C35.3311 42.5265 35.2112 42.2428 34.7393 41.9473C33.5683 41.2128 33.3193 39.5609 34.1299 38.4727ZM31.7217 21.5762C34.3554 18.6306 39.0523 18.9423 41.3555 22.208C42.1021 23.2658 42.5318 24.4464 42.5635 25.7363C42.6095 27.6025 42.5935 29.4701 42.6025 31.3369C42.6031 31.3894 42.5895 31.4412 42.5791 31.5195H29.957V30.9209C29.9557 29.4099 29.9363 27.8987 29.957 26.3877C29.9817 24.5832 30.4999 22.9425 31.7217 21.5762Z" fill="white"/>
</g>
<defs>
<clipPath id="clip0_3_984">
<rect width="72" height="79.1276" fill="white"/>
</clipPath>
</defs>
</svg>
